<svg viewBox="0 0 10.1631 8.14508" xmlns="http://www.w3.org/2000/svg" xmlns:xlink="http://www.w3.org/1999/xlink" width="10.163086" height="8.145081" fill="none" customFrame="#000000">
	<path id="check" d="M9.76905 0.299988L8.94991 0.299988C8.83507 0.299988 8.72608 0.352722 8.65577 0.442957L3.82413 6.56366L1.50733 3.62811C1.47228 3.58362 1.42761 3.54764 1.37667 3.52287C1.32572 3.49811 1.26983 3.48521 1.21319 3.48514L0.394049 3.48514C0.315534 3.48514 0.272174 3.57538 0.320221 3.63632L3.52999 7.70272C3.67999 7.89257 3.96827 7.89257 4.11944 7.70272L9.84288 0.449988C9.89093 0.390222 9.84757 0.299988 9.76905 0.299988Z" fill="rgb(111,115,238)" fill-rule="evenodd" />
	<path id="check" d="M9.76905 -1.2219e-05L8.94991 -1.2219e-05C8.89811 -1.2219e-05 8.84762 0.00564978 8.79842 0.0169738C8.74936 0.0282684 8.70159 0.0451955 8.65512 0.0677553C8.6064 0.0914104 8.56172 0.119981 8.5211 0.153468C8.48367 0.184325 8.44968 0.219356 8.41913 0.258562L3.82415 6.07945L1.74282 3.44226C1.71154 3.40254 1.67676 3.36713 1.63848 3.33603C1.5987 3.30372 1.55515 3.27606 1.50781 3.25306C1.46136 3.23048 1.41361 3.21353 1.36456 3.20221C1.31552 3.1909 1.26519 3.18521 1.21355 3.18514L0.394049 3.18514C0.352646 3.18514 0.313103 3.19107 0.275421 3.20291C0.241487 3.21357 0.209063 3.22904 0.178148 3.24931C0.148854 3.26851 0.122932 3.29073 0.100382 3.31596C0.0763586 3.34285 0.056162 3.37315 0.0397925 3.40687C0.0234265 3.44058 0.0121129 3.47519 0.00585181 3.51068C-8.58307e-06 3.54391 -0.00144261 3.57791 0.00154969 3.6127C0.00475097 3.64991 0.012757 3.68529 0.0255678 3.71884C0.0395418 3.75543 0.0592327 3.78984 0.0846407 3.82206L3.29451 7.8886C3.33018 7.93374 3.37016 7.97323 3.41446 8.00708C3.45203 8.03579 3.49271 8.06043 3.53649 8.08101C3.57951 8.10123 3.62366 8.11667 3.66893 8.12732C3.71932 8.13918 3.7711 8.14511 3.82427 8.14511C3.8767 8.14511 3.9278 8.13934 3.97755 8.12782C4.0235 8.11718 4.06831 8.10162 4.11198 8.08115C4.15592 8.06056 4.19675 8.03589 4.23449 8.00714C4.27861 7.97353 4.31849 7.93435 4.35412 7.8896L10.0784 0.635833C10.1003 0.608581 10.118 0.579488 10.1314 0.548552C10.1477 0.510868 10.1578 0.47045 10.1615 0.427299C10.1645 0.392739 10.1631 0.358947 10.1574 0.32592C10.1511 0.290059 10.1397 0.255103 10.1231 0.22105C10.1067 0.187549 10.0866 0.157434 10.0627 0.130705C10.0401 0.10544 10.0141 0.0832007 9.98473 0.0639863C9.9538 0.0437509 9.92137 0.028314 9.88744 0.0176758C9.84982 0.00588378 9.81036 -1.22488e-05 9.76905 -1.2219e-05ZM4.01524 6.32156L3.82413 6.56366L3.63304 6.32154L1.50733 3.62811C1.47228 3.58362 1.42761 3.54764 1.37667 3.52287C1.32572 3.49811 1.26983 3.48521 1.21319 3.48514L0.394049 3.48514C0.315534 3.48514 0.272174 3.57538 0.320221 3.63632L0.434583 3.7812L0.437697 3.78514L3.52999 7.70272C3.67999 7.89257 3.96827 7.89257 4.11944 7.70272L9.72451 0.599988L9.72774 0.595886L9.84288 0.449988C9.89093 0.390222 9.84757 0.299988 9.76905 0.299988L8.94991 0.299988C8.83507 0.299988 8.72608 0.352722 8.65577 0.442957L4.01524 6.32156Z" fill="rgb(111,115,238)" fill-rule="evenodd" />
</svg>
