<svg viewBox="0 0 151.455 45" xmlns="http://www.w3.org/2000/svg" xmlns:xlink="http://www.w3.org/1999/xlink" width="151.455200" height="45.000000" fill="none">
	<defs>
		<linearGradient id="paint_linear_48" x1="13.2392941" x2="-5.5470829" y1="26.5072327" y2="7.72084618" gradientUnits="userSpaceOnUse">
			<stop stop-color="rgb(0,160,255)" offset="0" stop-opacity="1" />
			<stop stop-color="rgb(0,161,255)" offset="0.00657445006" stop-opacity="1" />
			<stop stop-color="rgb(0,190,255)" offset="0.260100007" stop-opacity="1" />
			<stop stop-color="rgb(0,210,255)" offset="0.512199998" stop-opacity="1" />
			<stop stop-color="rgb(0,223,255)" offset="0.760399997" stop-opacity="1" />
			<stop stop-color="rgb(0,227,255)" offset="1" stop-opacity="1" />
		</linearGradient>
		<linearGradient id="paint_linear_49" x1="12.2417927" x2="-14.8444023" y1="4.78779602" y2="4.78779602" gradientUnits="userSpaceOnUse">
			<stop stop-color="rgb(255,224,0)" offset="0" stop-opacity="1" />
			<stop stop-color="rgb(255,189,0)" offset="0.408699989" stop-opacity="1" />
			<stop stop-color="rgb(255,165,0)" offset="0.775399983" stop-opacity="1" />
			<stop stop-color="rgb(255,156,0)" offset="1" stop-opacity="1" />
		</linearGradient>
		<linearGradient id="paint_linear_50" x1="16.1028366" x2="-9.37288284" y1="11.8267202" y2="-13.6489916" gradientUnits="userSpaceOnUse">
			<stop stop-color="rgb(255,58,68)" offset="0" stop-opacity="1" />
			<stop stop-color="rgb(195,17,98)" offset="1" stop-opacity="1" />
		</linearGradient>
		<linearGradient id="paint_linear_51" x1="-3.59473801" x2="7.78119278" y1="22.1917152" y2="10.8157845" gradientUnits="userSpaceOnUse">
			<stop stop-color="rgb(50,160,113)" offset="0" stop-opacity="1" />
			<stop stop-color="rgb(45,167,113)" offset="0.0684999973" stop-opacity="1" />
			<stop stop-color="rgb(21,207,116)" offset="0.476200014" stop-opacity="1" />
			<stop stop-color="rgb(6,231,117)" offset="0.800899982" stop-opacity="1" />
			<stop stop-color="rgb(0,240,118)" offset="1" stop-opacity="1" />
		</linearGradient>
		<linearGradient id="paint_linear_52" x1="7.61938572" x2="-19.4666138" y1="4.78767776" y2="4.78767776" gradientUnits="userSpaceOnUse">
			<stop stop-color="rgb(204,179,0)" offset="0" stop-opacity="1" />
			<stop stop-color="rgb(204,151,0)" offset="0.408699989" stop-opacity="1" />
			<stop stop-color="rgb(204,132,0)" offset="0.775399983" stop-opacity="1" />
			<stop stop-color="rgb(204,125,0)" offset="1" stop-opacity="1" />
		</linearGradient>
		<linearGradient id="paint_linear_53" x1="16.1098862" x2="-9.36583138" y1="11.8267202" y2="-13.6489897" gradientUnits="userSpaceOnUse">
			<stop stop-color="rgb(204,46,54)" offset="0" stop-opacity="1" />
			<stop stop-color="rgb(156,14,78)" offset="1" stop-opacity="1" />
		</linearGradient>
		<linearGradient id="paint_linear_54" x1="13.2393208" x2="-5.54706001" y1="26.5907459" y2="7.8043251" gradientUnits="userSpaceOnUse">
			<stop stop-color="rgb(0,141,224)" offset="0" stop-opacity="1" />
			<stop stop-color="rgb(0,141,224)" offset="0.00657445006" stop-opacity="1" />
			<stop stop-color="rgb(0,167,224)" offset="0.260100007" stop-opacity="1" />
			<stop stop-color="rgb(0,184,224)" offset="0.512199998" stop-opacity="1" />
			<stop stop-color="rgb(0,196,224)" offset="0.760399997" stop-opacity="1" />
			<stop stop-color="rgb(0,199,224)" offset="1" stop-opacity="1" />
		</linearGradient>
		<linearGradient id="paint_linear_55" x1="16.1103706" x2="-9.36547852" y1="11.3821516" y2="-14.0943193" gradientUnits="userSpaceOnUse">
			<stop stop-color="rgb(224,51,60)" offset="0" stop-opacity="1" />
			<stop stop-color="rgb(171,15,86)" offset="1" stop-opacity="1" />
		</linearGradient>
		<linearGradient id="paint_linear_56" x1="7.61810589" x2="-19.4681206" y1="4.72791195" y2="4.72791195" gradientUnits="userSpaceOnUse">
			<stop stop-color="rgb(224,197,0)" offset="0" stop-opacity="1" />
			<stop stop-color="rgb(224,166,0)" offset="0.408699989" stop-opacity="1" />
			<stop stop-color="rgb(224,145,0)" offset="0.775399983" stop-opacity="1" />
			<stop stop-color="rgb(224,137,0)" offset="1" stop-opacity="1" />
		</linearGradient>
		<linearGradient id="paint_linear_57" x1="7.61854029" x2="-19.467638" y1="-0.00111961365" y2="-0.00111961365" gradientUnits="userSpaceOnUse">
			<stop stop-color="rgb(255,232,64)" offset="0" stop-opacity="1" />
			<stop stop-color="rgb(255,206,64)" offset="0.408699989" stop-opacity="1" />
			<stop stop-color="rgb(255,188,64)" offset="0.775399983" stop-opacity="1" />
			<stop stop-color="rgb(255,181,64)" offset="1" stop-opacity="1" />
		</linearGradient>
		<linearGradient id="paint_linear_58" x1="13.2393332" x2="-5.54704952" y1="0.425148964" y2="-18.36129" gradientUnits="userSpaceOnUse">
			<stop stop-color="rgb(64,184,255)" offset="0" stop-opacity="1" />
			<stop stop-color="rgb(64,185,255)" offset="0.00657445006" stop-opacity="1" />
			<stop stop-color="rgb(64,206,255)" offset="0.260100007" stop-opacity="1" />
			<stop stop-color="rgb(64,221,255)" offset="0.512199998" stop-opacity="1" />
			<stop stop-color="rgb(64,231,255)" offset="0.760399997" stop-opacity="1" />
			<stop stop-color="rgb(64,234,255)" offset="1" stop-opacity="1" />
		</linearGradient>
		<linearGradient id="paint_linear_59" x1="-3.51291084" x2="7.8630228" y1="17.5680256" y2="6.19209576" gradientUnits="userSpaceOnUse">
			<stop stop-color="rgb(101,184,149)" offset="0" stop-opacity="1" />
			<stop stop-color="rgb(98,189,149)" offset="0.0684999973" stop-opacity="1" />
			<stop stop-color="rgb(80,219,151)" offset="0.476200014" stop-opacity="1" />
			<stop stop-color="rgb(68,237,152)" offset="0.800899982" stop-opacity="1" />
			<stop stop-color="rgb(64,244,152)" offset="1" stop-opacity="1" />
		</linearGradient>
	</defs>
	<rect id="Badge" width="151.455231" height="45.000000" x="0.000000" y="0.000000" fill="rgb(255,255,255)" fill-opacity="0" />
	<g id="g13546">
		<g id="g13548">
			<path id="path13552" d="M145.522 0L5.59702 0C2.51866 0 0 2.51866 0 5.59701L0 39.1791C0 42.2575 2.51866 44.7761 5.59702 44.7761L145.522 44.7761C148.601 44.7761 151.119 42.2575 151.119 39.1791L151.119 5.59701C151.119 2.51866 148.601 0 145.522 0Z" fill="rgb(255,255,255)" fill-rule="nonzero" transform="matrix(1,0,0,-1,0.223999,44.8882)" />
			<path id="path13554" d="M145.522 44.7761L5.59702 44.7761C2.51866 44.7761 0 42.2575 0 39.1791L0 5.59701C0 2.51866 2.51866 0 5.59702 0L145.522 0C148.601 0 151.119 2.51866 151.119 5.59701L151.119 39.1791C151.119 42.2575 148.601 44.7761 145.522 44.7761ZM145.522 43.8806C148.115 43.8806 150.224 41.7712 150.224 39.1791L150.224 5.59701C150.224 3.00448 148.115 0.895075 145.522 0.895075L5.59702 0.895075C3.00493 0.895075 0.895522 3.00448 0.895522 5.59701L0.895522 39.1791C0.895522 41.7712 3.00493 43.8806 5.59702 43.8806L145.522 43.8806Z" opacity="0" fill="rgb(0,0,0)" fill-rule="nonzero" transform="matrix(1,0,0,-1,0.223999,44.8882)" />
			<path id="path13556" d="M73.7622 4.56291L75.851 4.56291L75.851 18.5568L73.7622 18.5568L73.7622 4.56291ZM92.576 13.5159L90.1816 7.44884L90.1099 7.44884L87.6249 13.5159L85.3749 13.5159L89.1014 5.03608L86.9767 0.319253L89.1562 0.319253L94.8988 13.5159L92.576 13.5159ZM80.7305 6.15235C80.0454 6.15235 79.0917 6.49433 79.0917 7.34082C79.0917 8.42093 80.2805 8.835 81.3058 8.835C82.2249 8.835 82.6558 8.63698 83.2144 8.36664C83.0521 7.0706 81.9361 6.15235 80.7305 6.15235ZM80.9823 13.8221C79.47 13.8221 77.904 13.1557 77.2558 11.6794L79.1096 10.9054C79.5058 11.6794 80.2435 11.9317 81.0182 11.9317C82.0984 11.9317 83.1965 11.2832 83.2144 10.131L83.2144 9.9872C82.8361 10.2032 82.0267 10.5272 81.036 10.5272C79.0379 10.5272 77.0029 9.42929 77.0029 7.37675C77.0029 5.50433 78.6416 4.29795 80.4775 4.29795C81.8823 4.29795 82.6558 4.92806 83.1428 5.66608L83.2144 5.66608L83.2144 4.58608L85.2305 4.58608L85.2305 9.95138C85.2305 12.4354 83.3767 13.8221 80.9823 13.8221ZM68.0734 11.8124L65.1025 11.8124L65.1025 16.6091L68.0734 16.6091C69.6349 16.6091 70.5215 15.3162 70.5215 14.2108C70.5215 13.1263 69.6349 11.8124 68.0734 11.8124ZM68.0196 18.5568L63.0148 18.5568L63.0148 4.56291L65.1025 4.56291L65.1025 9.86474L68.0196 9.86474C70.3346 9.86474 72.6103 11.5408 72.6103 14.2108C72.6103 16.8807 70.3346 18.5568 68.0196 18.5568ZM40.7275 6.14978C39.2844 6.14978 38.0763 7.35795 38.0763 9.01735C38.0763 10.6942 39.2844 11.9207 40.7275 11.9207C42.1521 11.9207 43.2702 10.6942 43.2702 9.01735C43.2702 7.35795 42.1521 6.14978 40.7275 6.14978ZM43.1259 12.7323L43.0537 12.7323C42.585 13.2912 41.6829 13.7962 40.5469 13.7962C38.1664 13.7962 35.9844 11.7044 35.9844 9.01735C35.9844 6.34825 38.1664 4.27433 40.5469 4.27433C41.6829 4.27433 42.585 4.7794 43.0537 5.35612L43.1259 5.35612L43.1259 4.67093C43.1259 2.84922 42.1521 1.87545 40.5832 1.87545C39.3028 1.87545 38.5093 2.79548 38.1843 3.57078L36.3631 2.8134C36.8861 1.55104 38.2749 0 40.5832 0C43.0358 0 45.1097 1.44302 45.1097 4.95951L45.1097 13.5076L43.1259 13.5076L43.1259 12.7323ZM46.5523 4.56291L48.6442 4.56291L48.6442 18.5572L46.5523 18.5572L46.5523 4.56291ZM51.7282 9.17955C51.674 11.0192 53.1528 11.9567 54.2167 11.9567C55.0469 11.9567 55.7499 11.5422 55.9838 10.9465L51.7282 9.17955ZM58.2204 10.7664C57.8241 11.8307 56.6152 13.7962 54.1445 13.7962C51.6919 13.7962 49.6543 11.8666 49.6543 9.03526C49.6543 6.36616 51.674 4.27433 54.3789 4.27433C56.5614 4.27433 57.8241 5.60888 58.3469 6.38418L56.7237 7.46642C56.1831 6.67276 55.4431 6.14978 54.3789 6.14978C53.315 6.14978 52.5578 6.63683 52.0706 7.59235L58.4364 10.2255L58.2204 10.7664ZM7.50224 12.3354L7.50224 10.3156L12.3353 10.3156C12.191 9.17955 11.8123 8.35007 11.2351 7.77291C10.532 7.06936 9.43187 6.29407 7.50224 6.29407C4.52653 6.29407 2.2003 8.6925 2.2003 11.6681C2.2003 14.6437 4.52653 17.0425 7.50224 17.0425C9.10735 17.0425 10.2793 16.4111 11.145 15.5996L12.5697 17.0241C11.3615 18.1785 9.75627 19.0622 7.50224 19.0622C3.42638 19.0622 0 15.7438 0 11.6681C0 7.59235 3.42638 4.27433 7.50224 4.27433C9.70254 4.27433 11.3615 4.99534 12.6598 6.34825C13.9943 7.6828 14.4093 9.55825 14.4093 11.0729C14.4093 11.5422 14.3734 11.9746 14.3008 12.3354L7.50224 12.3354ZM19.904 6.14978C18.461 6.14978 17.2165 7.34004 17.2165 9.03526C17.2165 10.7485 18.461 11.9207 19.904 11.9207C21.3465 11.9207 22.5909 10.7485 22.5909 9.03526C22.5909 7.34004 21.3465 6.14978 19.904 6.14978ZM19.904 13.7962C17.2707 13.7962 15.1246 11.7945 15.1246 9.03526C15.1246 6.29407 17.2707 4.27433 19.904 4.27433C22.5367 4.27433 24.6828 6.29407 24.6828 9.03526C24.6828 11.7945 22.5367 13.7962 19.904 13.7962ZM30.3292 6.14978C28.8868 6.14978 27.6422 7.34004 27.6422 9.03526C27.6422 10.7485 28.8868 11.9207 30.3292 11.9207C31.7718 11.9207 33.0162 10.7485 33.0162 9.03526C33.0162 7.34004 31.7718 6.14978 30.3292 6.14978ZM30.3292 13.7962C27.696 13.7962 25.5504 11.7945 25.5504 9.03526C25.5504 6.29407 27.696 4.27433 30.3292 4.27433C32.9621 4.27433 35.1082 6.29407 35.1082 9.03526C35.1082 11.7945 32.9621 13.7962 30.3292 13.7962Z" fill="rgb(40,39,57)" fill-rule="nonzero" transform="matrix(1,0,0,-1,46.1663,38.2568)" />
			<g id="g13558">
				<g id="g13560">
					<path id="path13580" d="M0.601232 0L0.518059 0.0795894C0.192312 0.424253 0 0.959441 0 1.65246L0 1.48937L0 26.2461C0 26.2483 0 26.25 0 26.2518C0 26.2497 0 26.2479 0 26.2456L0 26.0821C0 26.8325 0.224216 27.3978 0.599887 27.7368L14.4691 13.8679L0.601232 0ZM0 26.2531C0 26.3148 0.00167902 26.3747 0.00481335 26.4337C0.00167902 26.3751 0 26.3148 0 26.2531ZM0.00481335 26.4364C0.00481335 26.4372 0.00481231 26.4381 0.00514813 26.439C0.00481231 26.4381 0.00481335 26.4372 0.00481335 26.4364ZM0.00514813 26.4442C0.00514813 26.4447 0.00514813 26.4451 0.00514813 26.4456C0.00514813 26.4451 0.00514813 26.4447 0.00514813 26.4442Z" fill="url(#paint_linear_48)" fill-rule="nonzero" transform="matrix(1,0,0,-1,11.3875,36.3689)" />
				</g>
			</g>
			<g id="g13582">
				<g id="g13584">
					<path id="path13600" d="M4.62235 0L4.7278 0.0598885L10.2049 3.17194C10.7271 3.46881 11.0751 3.82869 11.2488 4.20952C11.0756 3.82869 10.7275 3.46836 10.2049 3.17149L4.7278 0.0594409L4.62235 0ZM4.62369 0.163992L0 4.78847L4.62325 9.41216L10.2049 6.24112C10.9137 5.83836 11.3117 5.31929 11.3782 4.78892C11.3782 4.78847 11.3782 4.78757 11.3782 4.78679C11.3117 4.25765 10.9137 3.73813 10.2049 3.33548L4.62369 0.163992Z" fill="url(#paint_linear_49)" fill-rule="nonzero" transform="matrix(1,0,0,-1,25.8565,27.2893)" />
				</g>
			</g>
			<g id="g13602">
				<g id="g13604">
					<path id="path13616" d="M1.06478 0C0.67735 0 0.33929 0.125933 0.0756711 0.363806L0.0761203 0.364255C0.33974 0.126382 0.678247 0 1.06567 0C1.09925 0 1.1334 0.000896671 1.16799 0.00257578C1.13295 0.000896671 1.09836 0 1.06478 0ZM1.06522 0.163994C0.677799 0.163546 0.33974 0.289927 0.0761203 0.5278L0.0761203 0.528135L13.944 14.3961L18.5676 9.77161L2.31929 0.539553C1.86974 0.284665 1.44381 0.163994 1.06522 0.163994ZM0.072202 0.366829C0.047687 0.389105 0.0236194 0.412725 0 0.43724L0.072202 0.366829Z" fill="url(#paint_linear_50)" fill-rule="nonzero" transform="matrix(1,0,0,-1,11.9126,36.897)" />
				</g>
			</g>
			<g id="g13618">
				<g id="g13620">
					<path id="path13638" d="M13.8692 0L0 13.8688C0.263619 14.1063 0.601232 14.2322 0.988209 14.2322C1.3678 14.2322 1.79407 14.1111 2.24451 13.8557L18.4924 4.62369L13.8692 0ZM18.597 4.72814L2.24451 14.0192C1.79407 14.2746 1.3678 14.3957 0.988209 14.3957C0.986418 14.3957 0.985187 14.3957 0.983396 14.3957C0.985635 14.3957 0.987313 14.3957 0.989999 14.3957C1.36869 14.3957 1.79451 14.2751 2.24451 14.0196L18.597 4.72814Z" fill="url(#paint_linear_51)" fill-rule="nonzero" transform="matrix(1,0,0,-1,11.9874,22.501)" />
				</g>
			</g>
			<path id="path13640" d="M1.17504 0C1.52698 0.0201492 1.91664 0.141268 2.32634 0.373433L18.5734 9.60503L2.32634 0.373433C1.91698 0.140821 1.52698 0.0201492 1.17504 0ZM0.0827237 0.36123L0.0792546 0.364253C0.0804859 0.363358 0.0818282 0.362126 0.0827237 0.36123ZM0.00705264 0.434664L0 0.441603L0 0.442051C0.00268657 0.439476 0.00481383 0.436902 0.00705264 0.434664Z" fill="rgb(255,255,255)" fill-rule="nonzero" transform="matrix(1,0,0,-1,11.9055,36.8943)" />
			<g id="g13642">
				<g id="g13644">
					<path id="path13660" d="M0 0L0.105447 0.0598865L0 0Z" fill="url(#paint_linear_52)" fill-rule="nonzero" transform="matrix(1,0,0,-1,30.4788,27.2893)" />
				</g>
			</g>
			<g id="g13662">
				<g id="g13664">
					<path id="path13676" d="M1.07272 0C0.685299 0 0.346792 0.126382 0.0831729 0.364255L0.0827237 0.363806C0.0818282 0.364702 0.0804859 0.365934 0.0792546 0.366829L0.00705263 0.43724C0.00481383 0.439478 0.00268657 0.442052 0 0.444627L0.0831729 0.5278C0.346792 0.289927 0.684852 0.163546 1.07228 0.163994C1.45086 0.163994 1.87679 0.284665 2.32634 0.539553L18.5747 9.77161L18.6788 9.6675L18.5734 9.60761L2.32634 0.376009C1.91664 0.143844 1.52698 0.022725 1.17504 0.00257578C1.14045 0.000896671 1.10631 0 1.07272 0Z" fill="url(#paint_linear_53)" fill-rule="nonzero" transform="matrix(1,0,0,-1,11.9055,36.897)" />
				</g>
			</g>
			<path id="path13678" d="M0.51806 0C0.192313 0.344664 0 0.879851 0 1.57287L0 1.57332C0 0.879851 0.192313 0.345111 0.51806 0.000447515L0.51806 0Z" fill="rgb(255,255,255)" fill-rule="nonzero" transform="matrix(1,0,0,-1,11.3875,36.4529)" />
			<g id="g13680">
				<g id="g13682">
					<path id="path13702" d="M0.51806 0C0.192313 0.344664 0 0.879404 0 1.57287L0 1.73597C0 1.04295 0.192313 0.507761 0.51806 0.163097L0.601233 0.0835077L0.51806 0Z" fill="url(#paint_linear_54)" fill-rule="nonzero" transform="matrix(1,0,0,-1,11.3875,36.4524)" />
				</g>
			</g>
			<g id="g13704">
				<g id="g13706">
					<path id="path13718" d="M0 0L0.0831741 0.0835079L0.0831741 0.0831731L0 0Z" fill="url(#paint_linear_55)" fill-rule="nonzero" transform="matrix(1,0,0,-1,11.9055,36.4524)" />
				</g>
			</g>
			<path id="path13720" d="M0 0C0.0860829 0.188955 0.129405 0.383057 0.129405 0.577273C0.129405 0.577609 0.129405 0.578059 0.129405 0.578059C0.129405 0.383507 0.0860829 0.189403 0 0Z" fill="rgb(255,255,255)" fill-rule="nonzero" transform="matrix(1,0,0,-1,37.1053,23.0798)" />
			<g id="g13722">
				<g id="g13724">
					<path id="path13740" d="M0.104104 0L0 0.104104L5.58124 3.2756C6.29005 3.67825 6.68799 4.19776 6.75449 4.7269C6.75449 4.53269 6.71116 4.33858 6.62508 4.14963C6.45146 3.76881 6.10344 3.40892 5.58124 3.11205L0.104104 0Z" fill="url(#paint_linear_56)" fill-rule="nonzero" transform="matrix(1,0,0,-1,30.4802,27.2295)" />
				</g>
			</g>
			<path id="path13742" d="M6.65082 0L6.65082 0.000447515C6.65037 0.586007 6.25903 1.17145 5.47758 1.61575L0.000447515 4.7278L0 4.7278L0.000447515 4.72814L5.47758 1.61619C6.25993 1.1719 6.65172 0.58556 6.65082 0Z" fill="rgb(40,39,57)" fill-rule="nonzero" transform="matrix(1,0,0,-1,30.5839,22.501)" />
			<g id="g13744">
				<g id="g13746">
					<path id="path13762" d="M6.75492 0C6.68843 0.530373 6.29048 1.04944 5.58168 1.4522L0 4.62324L0.104104 4.72735L0.104551 4.72735L5.58168 1.6153C6.36313 1.17101 6.75447 0.585559 6.75492 0Z" fill="url(#paint_linear_57)" fill-rule="nonzero" transform="matrix(1,0,0,-1,30.4797,22.5005)" />
				</g>
			</g>
			<path id="path13764" d="M0 0C0 0.000447761 0 0.000894784 0 0.00134254C0 0.000894784 0 0.000447761 0 0ZM0.00481336 0.181903C0.00481336 0.182798 0.00481336 0.183692 0.00481336 0.184588C0.00481336 0.183692 0.00481336 0.182798 0.00481336 0.181903ZM0.00514814 0.187164C0.00514814 0.188955 0.00514814 0.190634 0.00514814 0.192425C0.00514814 0.190634 0.00514814 0.188955 0.00514814 0.187164ZM0.00514814 0.193767C0.0699617 1.34373 0.695261 2.00798 1.57981 2.0119C1.19631 2.00966 0.862276 1.88373 0.600783 1.64809L0.600783 1.64854L0.597649 1.64541C0.570111 1.62056 0.543918 1.59425 0.518059 1.56716C0.224216 1.2563 0.0388422 0.790632 0.00514814 0.193767Z" fill="rgb(40,39,57)" fill-rule="nonzero" transform="matrix(1,0,0,-1,11.3875,10.1169)" />
			<g id="g13766">
				<g id="g13768">
					<path id="path13788" d="M0 0L0 0.163545C0 0.165784 0 0.167574 0 0.169701C0 0.170148 0 0.170596 0 0.171043C0 0.232722 0.00167903 0.293059 0.00481338 0.351604C0.00481338 0.352499 0.00481338 0.353394 0.00481338 0.354289C0.00481338 0.355073 0.00481234 0.355969 0.00514816 0.356865C0.00514816 0.358656 0.00514816 0.360335 0.00514816 0.362126C0.00514816 0.362573 0.00514816 0.36302 0.00514816 0.363468C0.0388424 0.960335 0.224216 1.42601 0.518061 1.73687L0.59989 1.6547C0.224217 1.31575 0 0.750449 0 0ZM0.597651 1.81511L0.600785 1.81825C0.59989 1.8169 0.598547 1.81601 0.597651 1.81511Z" fill="url(#paint_linear_58)" fill-rule="nonzero" transform="matrix(1,0,0,-1,11.3875,10.2866)" />
				</g>
			</g>
			<path id="path13790" transform="matrix(1,0,0,-1,12.9673,8.10522)" />
			<g id="g13792">
				<g id="g13794">
					<path id="path13812" d="M18.5743 0L2.32634 9.23205C1.8759 9.48739 1.44963 9.60851 1.07004 9.60851C0.68306 9.60851 0.345448 9.48258 0.0818287 9.24515L0 9.32732C0.0258582 9.3544 0.0520521 9.38071 0.0795894 9.40556C0.0804849 9.40646 0.0818282 9.40735 0.0827237 9.40825C0.344216 9.64388 0.678246 9.76981 1.06175 9.77205C1.06265 9.77205 1.06388 9.77205 1.06522 9.77205C1.06702 9.77205 1.06825 9.77205 1.07004 9.77205C1.44963 9.77205 1.8759 9.65094 2.32634 9.39549L18.6788 0.104442L18.6784 0.104104L18.5743 0Z" fill="url(#paint_linear_59)" fill-rule="nonzero" transform="matrix(1,0,0,-1,11.9055,17.8772)" />
				</g>
			</g>
			<path id="path13814" d="M2.37302 4.82082C2.38612 3.75828 2.17321 2.90127 1.73586 2.25056L5.13123 2.25056L5.13123 7.31675L2.37302 7.31675L2.37302 4.82082ZM0.825115 0L0 0L0 2.25056L0.656754 2.25056C1.23828 2.75172 1.5225 3.60784 1.51075 4.82082L1.51075 8.14187L5.99485 8.14187L5.99485 2.25056L6.74485 2.25056L6.74485 0L5.91929 0L5.91929 1.42545L0.825115 1.42545L0.825115 0Z" fill="rgb(40,39,57)" fill-rule="nonzero" transform="matrix(1,0,0,-1,46.541,16.0896)" />
			<path id="path13816" d="M2.48497 4.93276L2.37303 4.93142L2.37392 4.84097C2.37348 3.83563 2.16358 3.0328 1.75466 2.42507L1.63758 2.25056L5.35512 2.25056L5.35512 7.54064L2.37303 7.54064L2.37303 4.93187L2.37303 4.93142L2.48497 4.93276L2.59691 4.93276L2.59691 7.31675L5.13124 7.31675L5.13124 2.47444L1.8478 2.47444L1.8478 2.3625L1.9406 2.30038C2.38086 2.95545 2.5978 3.80552 2.5978 4.84097L2.59691 4.9341L2.48497 4.93276L2.59691 4.93276L2.48497 4.93276ZM0.937057 0.11194L0.937057 0.223881L0.223881 0.223881L0.223881 2.25056L0.768695 2.25056L0.810229 2.25056L0.841678 2.27765C1.44683 2.79974 1.73508 3.66952 1.73508 4.85933L1.73463 4.93366L1.73463 4.93276L1.73463 8.14187L5.99486 8.14187L5.99486 2.25056L6.74486 2.25056L6.74486 0.223881L6.14318 0.223881L6.14318 1.53739L6.14318 1.64933L0.825116 1.64933L0.825116 0.11194L0.937057 0.11194L0.937057 0.223881L0.937057 0.11194L1.049 0.11194L1.049 1.42545L5.9193 1.42545L5.9193 0.11194L5.9193 0L6.8568 0L6.96874 0L6.96874 2.47444L6.21874 2.47444L6.21874 8.36575L1.51075 8.36575L1.51075 4.93231L1.51075 4.93187L1.5112 4.85933C1.51075 3.70097 1.23 2.90642 0.695596 2.4478L0.768695 2.3625L0.768695 2.47444L0.11194 2.47444L0 2.47444L0 0L0.937057 0L1.049 0L1.049 0.11194L0.937057 0.11194Z" fill="rgb(40,39,57)" fill-rule="nonzero" transform="matrix(1,0,0,-1,46.4291,16.2017)" />
			<path id="path13818" d="M1.6266 1.58026C2.12418 1.07698 2.73202 0.82556 3.45134 0.82556C4.17056 0.82556 4.77929 1.07698 5.27552 1.58026C5.77321 2.08355 6.02238 2.72687 6.02238 3.50821C6.02238 4.28955 5.77321 4.93287 5.27552 5.43616C4.77929 5.93944 4.17056 6.19086 3.45134 6.19086C2.73202 6.19086 2.12418 5.93944 1.6266 5.43616C1.13026 4.93287 0.881085 4.28955 0.881085 3.50821C0.881085 2.72687 1.13026 2.08355 1.6266 1.58026ZM5.91403 1.01798C5.2537 0.338955 4.43295 0 3.45134 0C2.46963 0 1.64843 0.338955 0.989439 1.01798C0.329215 1.69623 0 2.52649 0 3.50821C0 4.48993 0.329215 5.3203 0.989439 5.99843C1.64843 6.67758 2.46963 7.01687 3.45134 7.01687C4.42724 7.01687 5.2463 6.67579 5.90955 5.99407C6.57201 5.31235 6.90347 4.48377 6.90347 3.50821C6.90347 2.52649 6.57336 1.69623 5.91403 1.01798Z" fill="rgb(40,39,57)" fill-rule="nonzero" transform="matrix(1,0,0,-1,54.1023,14.8142)" />
			<path id="path13820" d="M1.73855 1.6922L1.65896 1.61351C2.17444 1.09008 2.81765 0.824218 3.56329 0.825561C4.30836 0.824218 4.95291 1.09008 5.46705 1.61351C5.98612 2.13739 6.24716 2.81519 6.24627 3.62015C6.24716 4.42511 5.98612 5.10291 5.46705 5.62679C4.95291 6.15022 4.30836 6.41608 3.56329 6.41474C2.81765 6.41608 2.17444 6.15022 1.65896 5.62679C1.14123 5.10291 0.880192 4.42511 0.881088 3.62015C0.880192 2.81519 1.14123 2.13739 1.65896 1.61351L1.73855 1.6922L1.81859 1.7709C1.34362 2.25414 1.1062 2.86198 1.10497 3.62015C1.1062 4.37832 1.34362 4.98616 1.81859 5.4694L1.81814 5.4694C2.29735 5.95254 2.86971 6.18952 3.56329 6.19086C4.25631 6.18952 4.83 5.95254 5.30787 5.4694L5.30966 5.46761L5.30787 5.4694C5.78407 4.98616 6.02116 4.37832 6.02239 3.62015C6.02116 2.86198 5.78407 2.25414 5.30787 1.7709C4.83 1.28776 4.25631 1.05079 3.56329 1.04944C2.86971 1.05079 2.29735 1.28776 1.81814 1.7709L1.73855 1.6922ZM6.02598 1.12993L5.94594 1.20773C5.30441 0.550076 4.51915 0.225226 3.56329 0.223882C2.60698 0.225226 1.82206 0.550076 1.18142 1.20773C0.541235 1.86761 0.225114 2.6634 0.223882 3.62015C0.225114 4.5769 0.541235 5.37269 1.18142 6.03258C1.82206 6.69022 2.60698 7.01552 3.56329 7.01687C4.51344 7.01552 5.29657 6.68888 5.94157 6.02776C6.58433 5.36485 6.90224 4.5703 6.90347 3.62015C6.90224 2.6634 6.58523 1.86761 5.94594 1.20773L6.02598 1.12993L6.10634 1.05213C6.78504 1.74907 7.12825 2.61358 7.12736 3.62015C7.12825 4.62101 6.78414 5.48373 6.10198 6.18381C5.41981 6.88657 4.56549 7.24198 3.56329 7.24075C2.55583 7.24198 1.6987 6.88825 1.02101 6.18817L1.02101 6.18862C0.340976 5.49123 -0.000893768 4.62672 1.75477e-06 3.62015C-0.000893768 2.61358 0.340976 1.74907 1.02101 1.05168L1.02101 1.05213C1.6987 0.352052 2.55583 -0.000893823 3.56329 1.69984e-06C4.5703 -0.000893823 5.42731 0.352052 6.10634 1.05213L6.02598 1.12993Z" fill="rgb(40,39,57)" fill-rule="nonzero" transform="matrix(1,0,0,-1,53.9903,14.9263)" />
			<path id="path13822" d="M3.48941 0C2.5012 0 1.67261 0.334477 1.00355 1.00399C0.333249 1.67295 0 2.5078 0 3.50821C0 4.50873 0.333249 5.34347 1.00355 6.01243C1.67261 6.68194 2.5012 7.01687 3.48941 7.01687C4.50168 7.01687 5.32466 6.65082 5.95645 5.91929L5.35522 5.33731C4.89963 5.90664 4.27646 6.19086 3.48941 6.19086C2.75698 6.19086 2.13907 5.94381 1.63623 5.4497C1.1325 4.9556 0.881085 4.30836 0.881085 3.50821C0.881085 2.70806 1.1325 2.06037 1.63623 1.56672C2.13907 1.07261 2.75698 0.82556 3.48941 0.82556C4.29616 0.82556 4.98358 1.15052 5.55324 1.80067L6.15325 1.20078C5.84631 0.831716 5.46235 0.539215 4.9988 0.324066C4.5366 0.108021 4.03254 0 3.48941 0Z" fill="rgb(40,39,57)" fill-rule="nonzero" transform="matrix(1,0,0,-1,61.8607,14.8142)" />
			<path id="path13824" d="M3.60135 0.111942L3.60135 0.223882C2.63811 0.225226 1.84445 0.546605 1.19464 1.19508C0.545271 1.84444 0.22478 2.64459 0.223884 3.62015C0.22478 4.59571 0.545271 5.39586 1.19464 6.04522C1.84445 6.69414 2.63811 7.01552 3.60135 7.01687C4.58699 7.01507 5.37056 6.66616 5.98355 5.95825L6.0684 6.03123L5.9906 6.11172L5.38937 5.52929L5.46717 5.44925L5.55459 5.51922C5.07974 6.11474 4.41471 6.41642 3.60135 6.41474C2.84352 6.41563 2.19157 6.15537 1.66993 5.64168C1.14303 5.12608 0.879746 4.44313 0.881089 3.62015C0.879746 2.79716 1.14303 2.11332 1.66993 1.59862C2.19157 1.08493 2.84352 0.824666 3.60135 0.825561C4.43866 0.824218 5.16414 1.16799 5.74914 1.83873L5.66519 1.91261L5.58605 1.83347L6.18605 1.23358L6.26519 1.31272L6.179 1.38392C5.88258 1.02806 5.51351 0.746419 5.06351 0.537426C4.6162 0.328434 4.13005 0.22433 3.60135 0.223882L3.60135 0.111942L3.60135 1.72328e-06C4.15926 1.72328e-06 4.68056 0.111047 5.15799 0.33448C5.63552 0.555786 6.03347 0.858807 6.35127 1.24097L6.41642 1.31922L5.74444 1.99176L5.65959 2.07661L5.5809 1.98649C5.02724 1.35638 4.37755 1.05079 3.60135 1.04944C2.89389 1.05079 2.31101 1.28429 1.82687 1.7587L1.82653 1.7587C1.34553 2.23097 1.10587 2.84272 1.10497 3.62015C1.10587 4.39758 1.34553 5.00843 1.82653 5.4816L1.82687 5.4816C2.31101 5.95601 2.89389 6.18951 3.60135 6.19086C4.36176 6.18907 4.94284 5.92231 5.37974 5.37929L5.45665 5.28302L6.14619 5.95075L6.22231 6.02429L6.15325 6.10422C5.50299 6.85981 4.64027 7.24198 3.60135 7.24075C2.58773 7.24164 1.72411 6.89306 1.03635 6.20351C0.34501 5.5153 -0.00133939 4.64507 3.89227e-06 3.62015C-0.00133939 2.59522 0.34501 1.725 1.03635 1.03634C1.72411 0.34724 2.58773 -0.000893799 3.60135 1.72328e-06L3.60135 0.111942Z" fill="rgb(40,39,57)" fill-rule="nonzero" transform="matrix(1,0,0,-1,61.7487,14.9263)" />
			<path id="path13826" d="M2.7394 0L1.87589 0L1.87589 5.89131L0 5.89131L0 6.71642L4.61529 6.71642L4.61529 5.89131L2.7394 5.89131L2.7394 0Z" fill="rgb(40,39,57)" fill-rule="nonzero" transform="matrix(1,0,0,-1,68.7651,14.6643)" />
			<path id="path13828" d="M2.85134 0.11194L2.85134 0.223881L2.09978 0.223881L2.09978 6.11519L0.223881 6.11519L0.223881 6.71642L4.6153 6.71642L4.6153 6.11519L2.7394 6.11519L2.7394 0.11194L2.85134 0.11194L2.85134 0.223881L2.85134 0.11194L2.96328 0.11194L2.96328 5.89131L4.83918 5.89131L4.83918 6.82836L4.83918 6.9403L0 6.9403L0 6.00325L0 5.89131L1.87589 5.89131L1.87589 0L2.85134 0L2.96328 0L2.96328 0.11194L2.85134 0.11194Z" fill="rgb(40,39,57)" fill-rule="nonzero" transform="matrix(1,0,0,-1,68.6532,14.7761)" />
			<path id="path13830" d="M1.90421 2.62713L4.13607 2.62713L3.03849 5.65646L3.00133 5.65646L1.90421 2.62713ZM0 0L2.53309 6.71642L3.50775 6.71642L6.04039 0L5.08409 0L4.4364 1.82037L1.6135 1.82037L0.95675 0L0 0Z" fill="rgb(40,39,57)" fill-rule="nonzero" transform="matrix(1,0,0,-1,73.3508,14.6643)" />
			<path id="path13832" d="M2.06608 2.73907L2.06608 2.62713L4.45757 2.62713L3.27862 5.88034L3.16321 5.88034L3.08451 5.88034L1.90656 2.62713L2.06608 2.62713L2.06608 2.73907L2.17153 2.70056L3.26866 5.73034L3.16321 5.7684L3.16321 5.65646L3.20037 5.65646L3.20037 5.7684L3.09504 5.73034L4.13832 2.85101L2.06608 2.85101L2.06608 2.73907L2.17153 2.70056L2.06608 2.73907ZM0.161864 0.11194L0.266753 0.0725385L2.77231 6.71642L3.59172 6.71642L6.04041 0.223881L5.32467 0.223881L4.67742 2.04425L1.69668 2.04425L1.03981 0.223881L0.161864 0.223881L0.161864 0.11194L0.266753 0.0725385L0.161864 0.11194L0.161864 0L1.11862 0L1.19731 0L1.85407 1.82037L4.51959 1.82037L5.16683 0L6.20227 0L6.36403 0L3.74698 6.9403L2.69496 6.9403L2.6175 6.9403L0 0L0.161864 0L0.161864 0.11194Z" fill="rgb(40,39,57)" fill-rule="nonzero" transform="matrix(1,0,0,-1,73.1889,14.7761)" />
			<path id="path13834" d="M0 0L0 6.71642L4.85932 6.71642L4.85932 0L3.99582 0L3.99582 5.89131L0.86272 5.89131L0.86272 0L0 0Z" fill="rgb(40,39,57)" fill-rule="nonzero" transform="matrix(1,0,0,-1,80.3671,14.6643)" />
			<path id="path13836" d="M0.11194 0.11194L0.22388 0.11194L0.22388 6.71642L4.85932 6.71642L4.85932 0.223881L4.2197 0.223881L4.2197 6.11519L0.86272 6.11519L0.86272 0.223881L0.11194 0.223881L0.11194 0.11194L0.22388 0.11194L0.11194 0.11194L0.11194 0L0.97466 0L1.0866 0L1.0866 5.89131L3.99582 5.89131L3.99582 0L4.97126 0L5.0832 0L5.0832 6.9403L0 6.9403L0 0L0.11194 0L0.11194 0.11194Z" fill="rgb(40,39,57)" fill-rule="nonzero" transform="matrix(1,0,0,-1,80.2551,14.7761)" />
			<path id="path13838" d="M0 0L0 6.71642L0.862838 6.71642L0.862838 3.83698L4.22105 3.83698L4.22105 6.71642L5.08412 6.71642L5.08412 0L4.22105 0L4.22105 3.03023L0.862838 3.03023L0.862838 0L0 0Z" fill="rgb(40,39,57)" fill-rule="nonzero" transform="matrix(1,0,0,-1,86.7656,14.6643)" />
			<path id="path13840" d="M0.11194 0.11194L0.223881 0.11194L0.223881 6.71642L0.862838 6.71642L0.862393 3.83698L4.44493 3.83698L4.44493 6.71642L5.08411 6.71642L5.08411 0.223881L4.44449 0.223881L4.44493 3.25411L0.862393 3.25411L0.862393 0.223881L0.11194 0.223881L0.11194 0.11194L0.223881 0.11194L0.11194 0.11194L0.11194 0L0.974778 0L1.08672 0L1.08672 3.03022L4.22061 3.03022L4.22061 0L5.19605 0L5.30799 0L5.30799 6.9403L4.33299 6.9403L4.22061 6.9403L4.22061 4.06086L1.08627 4.06086L1.08672 6.9403L0.11194 6.9403L0 6.9403L0 0L0.11194 0L0.11194 0.11194Z" fill="rgb(40,39,57)" fill-rule="nonzero" transform="matrix(1,0,0,-1,86.6536,14.7761)" />
			<path id="path13842" d="M1.62661 1.58026C2.1243 1.07698 2.73157 0.82556 3.4509 0.82556C4.17068 0.82556 4.7793 1.07698 5.27565 1.58026C5.77278 2.08355 6.02251 2.72687 6.02251 3.50821C6.02251 4.28955 5.77278 4.93287 5.27565 5.43616C4.7793 5.93944 4.17068 6.19086 3.4509 6.19086C2.73157 6.19086 2.1243 5.93944 1.62661 5.43616C1.13038 4.93287 0.881088 4.28955 0.881088 3.50821C0.881088 2.72687 1.13038 2.08355 1.62661 1.58026ZM5.91405 1.01798C5.25382 0.338955 4.43307 0 3.4509 0C2.46974 0 1.64855 0.338955 0.989557 1.01798C0.329332 1.69623 0 2.52649 0 3.50821C0 4.48993 0.329332 5.3203 0.989557 5.99843C1.64855 6.67758 2.46974 7.01687 3.4509 7.01687C4.42736 7.01687 5.24587 6.67579 5.90968 5.99407C6.57214 5.31235 6.9036 4.48377 6.9036 3.50821C6.9036 2.52649 6.57349 1.69623 5.91405 1.01798Z" fill="rgb(40,39,57)" fill-rule="nonzero" transform="matrix(1,0,0,-1,92.966,14.8142)" />
			<path id="path13844" d="M1.73855 1.6922L1.65896 1.61351C2.17456 1.09008 2.81777 0.824218 3.56284 0.825561C4.30836 0.824218 4.95247 1.09008 5.46717 1.61351C5.98624 2.13739 6.24729 2.81519 6.24639 3.62015C6.24729 4.42511 5.98624 5.10291 5.46717 5.62679C4.95247 6.15022 4.30836 6.41608 3.56284 6.41474C2.81777 6.41608 2.17456 6.15022 1.65896 5.62679C1.14123 5.10291 0.880193 4.42511 0.881088 3.62015C0.880193 2.81519 1.14123 2.13739 1.65896 1.61351L1.73855 1.6922L1.81814 1.7709C1.34329 2.25414 1.10586 2.86198 1.10497 3.62015C1.10586 4.37832 1.34329 4.98616 1.81814 5.4694C2.29747 5.95254 2.86982 6.18952 3.56284 6.19086C4.25642 6.18952 4.83012 5.95254 5.308 5.4694L5.31102 5.46582L5.308 5.4694C5.78374 4.98616 6.02117 4.37832 6.02251 3.62015C6.02117 2.86198 5.78374 2.25414 5.308 1.7709C4.83012 1.28776 4.25642 1.05079 3.56284 1.04944C2.86982 1.05079 2.29747 1.28776 1.81814 1.7709L1.73855 1.6922ZM6.02598 1.12993L5.9455 1.20773C5.30408 0.550076 4.51915 0.225226 3.56284 0.223882C2.60698 0.225226 1.82206 0.550076 1.18154 1.20773L1.1784 1.2112L1.18154 1.20773C0.540904 1.86761 0.224778 2.6634 0.223883 3.62015C0.224778 4.5769 0.540904 5.37269 1.18154 6.03258C1.82206 6.69022 2.60698 7.01552 3.56284 7.01687C4.5131 7.01552 5.29624 6.68888 5.94158 6.02776C6.58434 5.36485 6.90225 4.5703 6.9036 3.62015C6.90225 2.6634 6.58524 1.86761 5.9455 1.20773L6.02598 1.12993L6.10647 1.05213C6.78505 1.74907 7.12837 2.61358 7.12748 3.62015C7.12837 4.62101 6.78382 5.48373 6.1021 6.18381C5.41994 6.88657 4.56504 7.24198 3.56284 7.24075C2.55583 7.24198 1.69881 6.88825 1.02101 6.18817L1.02101 6.18862C0.341088 5.49123 -0.000893769 4.62672 1.7542e-06 3.62015C-0.000893769 2.61358 0.341088 1.74907 1.02101 1.05168L1.02101 1.05213C1.69881 0.352052 2.55583 -0.000893823 3.56284 1.69984e-06C4.5703 -0.000893823 5.42732 0.352052 6.10647 1.05213L6.02598 1.12993Z" fill="rgb(40,39,57)" fill-rule="nonzero" transform="matrix(1,0,0,-1,92.8541,14.9263)" />
			<path id="path13846" d="M0 0L0 6.71642L0.861941 6.71642L0.861941 3.83698L4.22015 3.83698L4.22015 6.71642L5.08432 6.71642L5.08432 0L4.22015 0L4.22015 3.03023L0.861941 3.03023L0.861941 0L0 0Z" fill="rgb(40,39,57)" fill-rule="nonzero" transform="matrix(1,0,0,-1,103.398,14.6643)" />
			<path id="path13848" d="M0.11194 0.11194L0.223881 0.11194L0.223881 6.71642L0.861942 6.71642L0.861942 3.83698L4.44404 3.83698L4.44404 6.71642L5.08433 6.71642L5.08433 0.223881L4.44404 0.223881L4.44404 3.25411L0.861942 3.25411L0.861942 0.223881L0.11194 0.223881L0.11194 0.11194L0.223881 0.11194L0.11194 0.11194L0.11194 0L0.973883 0L1.08582 0L1.08582 3.03022L4.22015 3.03022L4.22015 0L5.19627 0L5.30821 0L5.30821 6.9403L4.3321 6.9403L4.22015 6.9403L4.22015 4.06086L1.08582 4.06086L1.08582 6.9403L0.11194 6.9403L0 6.9403L0 0L0.11194 0L0.11194 0.11194Z" fill="rgb(40,39,57)" fill-rule="nonzero" transform="matrix(1,0,0,-1,103.286,14.7761)" />
			<path id="path13850" d="M1.9041 2.62713L4.13619 2.62713L3.03917 5.65646L3.00224 5.65646L1.9041 2.62713ZM0 0L2.5332 6.71642L3.50821 6.71642L6.04141 0L5.08432 0L4.4373 1.82037L1.61306 1.82037L0.957092 0L0 0Z" fill="rgb(40,39,57)" fill-rule="nonzero" transform="matrix(1,0,0,-1,109.458,14.6643)" />
			<path id="path13852" d="M2.06641 2.73907L2.06641 2.62713L4.45857 2.62713L3.27985 5.88034L3.16455 5.88034L3.08619 5.88034L1.90747 2.62713L2.06641 2.62713L2.06641 2.73907L2.17164 2.70056L3.26977 5.73034L3.16455 5.7684L3.16455 5.65646L3.20149 5.65646L3.20149 5.7684L3.09627 5.73034L4.13955 2.85101L2.06641 2.85101L2.06641 2.73907L2.17164 2.70056L2.06641 2.73907ZM0.162308 0.11194L0.267539 0.0725385L2.77276 6.71642L3.59328 6.71642L6.04141 0.223881L5.32611 0.223881L4.67799 2.04425L1.69702 2.04425L1.03993 0.223881L0.162308 0.223881L0.162308 0.11194L0.267539 0.0725385L0.162308 0.11194L0.162308 0L1.1194 0L1.19776 0L1.85484 1.82037L4.52015 1.82037L5.16717 0L6.20373 0L6.36492 0L3.74776 6.9403L2.69552 6.9403L2.61828 6.9403L0 0L0.162308 0L0.162308 0.11194Z" fill="rgb(40,39,57)" fill-rule="nonzero" transform="matrix(1,0,0,-1,109.295,14.7761)" />
		</g>
	</g>
</svg>
