<svg width="0" height="0" class="hidden">
  <symbol xmlns="http://www.w3.org/2000/svg" xmlns:xlink="http://www.w3.org/1999/xlink" fill="none" viewBox="0 0 12 12" id="whatsapp">
    <rect id="003-whatsapp 1" width="12.000000" height="12.000000" x="0.000000" y="0.000000" fill="rgb(255,255,255)" fill-opacity="0"></rect>
    <path id="Vector" d="M5.99679 0.00378706C2.68503 0.00448977 0.000894764 2.68978 0.00159747 6.00153C0.00183171 7.14828 0.33091 8.2709 0.949763 9.23633L0.0168228 11.6569C-0.0328587 11.7856 0.0312284 11.9303 0.159965 11.98C0.188752 11.9911 0.21932 11.9968 0.250169 11.9967C0.278793 11.9969 0.307206 11.992 0.334119 11.9822L2.83265 11.0902C5.64377 12.841 9.34194 11.9815 11.0927 9.17033C12.8435 6.35918 11.9839 2.66104 9.1728 0.910259C8.21988 0.31675 7.11946 0.00268615 5.99679 0.00378706Z" fill="rgb(93,108,123)" fill-rule="nonzero"></path>
    <path id="Vector" d="M8.8555 7.02445C8.8555 7.02445 8.24338 6.72462 7.86009 6.52475C7.42636 6.30138 6.91666 6.71963 6.6768 6.9575C6.3035 6.8141 5.96254 6.59767 5.67389 6.32087C5.39705 6.03227 5.18062 5.69131 5.03726 5.31796C5.27513 5.07761 5.69238 4.56841 5.47002 4.13467C5.27262 3.7509 4.97032 3.13877 4.97032 3.13877C4.9279 3.05458 4.84172 3.00144 4.74744 3.00134L4.24775 3.00134C3.52002 3.12703 2.9909 3.762 2.99849 4.50046C2.99849 5.28498 3.93743 6.79211 4.57057 7.42572C5.20371 8.05933 6.71081 8.99779 7.49583 8.99779C8.23429 9.00538 8.86925 8.47624 8.99495 7.74854L8.99495 7.24884C8.99502 7.15356 8.94095 7.06654 8.8555 7.02445Z" fill="rgb(246.5,246.5,246.5)" fill-rule="nonzero"></path>
  </symbol>
  <symbol xmlns="http://www.w3.org/2000/svg" xmlns:xlink="http://www.w3.org/1999/xlink" fill="none" viewBox="0 0 12 12" id="viber">
    <rect id="viber 1" width="12.000000" height="12.000000" x="0.000000" y="0.000000" fill="rgb(255,255,255)" fill-opacity="0"></rect>
    <path id="Vector" d="M6.40802 6.77975C6.27078 6.91708 6.04821 6.91708 5.91088 6.77975L4.31329 5.18216C4.24737 5.11624 4.21029 5.02679 4.21029 4.93359C4.21029 4.8403 4.24737 4.75095 4.31329 4.68494L4.59729 4.40103L3.76315 3.56689L3.0798 4.25024C2.84982 4.48022 2.84991 4.8544 3.0798 5.08438L6.00866 8.01343C6.11935 8.12411 6.26748 8.185 6.42578 8.185C6.58407 8.185 6.7322 8.12402 6.84289 8.01334L7.52624 7.33008L6.6921 6.49585L6.40802 6.77975Z" fill="rgb(93,108,123)" fill-rule="nonzero"></path>
    <path id="Vector" d="M11.4957 4.23541C11.4957 3.10831 11.0541 2.04593 10.2519 1.24384C9.4498 0.441742 8.38742 0 7.26041 0L4.75085 0C4.75085 0 4.75085 0 4.75076 0C3.62384 0 2.56146 0.441742 1.75946 1.24374C0.957367 2.04584 0.515625 3.10831 0.515625 4.23532L0.515625 6.20792C0.515625 7.08069 0.78186 7.92032 1.28558 8.63599C1.72998 9.26733 2.32764 9.76044 3.02444 10.0732L3.02444 11.2062C3.02444 11.7921 3.35248 11.9999 3.63336 12C3.83405 12 4.03482 11.9009 4.23019 11.7057L5.49243 10.4432L7.2605 10.4432C8.38751 10.4432 9.44989 10.0015 10.252 9.1994C11.0541 8.39731 11.4958 7.33493 11.4958 6.20792L11.4957 4.23541ZM8.27197 7.57864L7.33997 8.51056C7.09644 8.75409 6.77179 8.88803 6.42572 8.88803C6.07965 8.88803 5.755 8.754 5.51147 8.51056L2.58252 5.58151C2.07852 5.07733 2.07852 4.25711 2.58252 3.75302L3.51453 2.82111C3.58044 2.7551 3.6698 2.71811 3.76309 2.71811C3.85629 2.71811 3.94574 2.7551 4.01166 2.82111L5.34302 4.15247C5.40894 4.21838 5.44592 4.30783 5.44592 4.40103C5.44592 4.49423 5.40894 4.58368 5.34293 4.6496L5.05902 4.9335L6.15948 6.03397L6.44348 5.74997C6.58081 5.61273 6.80338 5.61273 6.94061 5.75006L8.27197 7.08142C8.33798 7.14734 8.37497 7.23679 8.37497 7.32999C8.37497 7.42328 8.33798 7.51273 8.27197 7.57864ZM5.73944 3.41299C5.73944 3.2189 5.89682 3.06143 6.091 3.06143C7.30911 3.06143 8.30017 4.0524 8.30017 5.27042C8.30017 5.4646 8.14279 5.62198 7.94861 5.62198C7.75452 5.62198 7.59705 5.4646 7.59705 5.27042C7.59705 4.44012 6.92148 3.76456 6.091 3.76456C5.89682 3.76456 5.73944 3.60718 5.73944 3.41299ZM9.45474 5.62216C9.26056 5.62216 9.10318 5.46469 9.10318 5.2706C9.10327 4.46594 8.78989 3.70953 8.22098 3.14053C7.65198 2.57162 6.89557 2.25824 6.09091 2.25824C5.89682 2.25824 5.73935 2.10086 5.73935 1.90668C5.73935 1.71259 5.89682 1.55511 6.09091 1.55511C7.08334 1.55511 8.01636 1.94165 8.71811 2.6434C9.41995 3.34515 9.8064 4.27817 9.8063 5.2706C9.8063 5.46469 9.64893 5.62216 9.45474 5.62216Z" fill="rgb(93,108,123)" fill-rule="nonzero"></path>
  </symbol>
  <symbol xmlns="http://www.w3.org/2000/svg" xmlns:xlink="http://www.w3.org/1999/xlink" fill="none" viewBox="0 0 12 12" id="telegram">
    <rect id="003-telegram 1" width="12.000000" height="12.000000" x="0.000000" y="0.000000" fill="rgb(255,255,255)" fill-opacity="0"></rect>
    <path id="Vector" d="M4.70847 7.59058L4.50997 10.3826C4.79397 10.3826 4.91697 10.2606 5.06447 10.1141L6.39597 8.84158L9.15497 10.8621C9.66097 11.1441 10.0175 10.9956 10.154 10.3966L11.965 1.91058L11.9655 1.91008C12.126 1.16208 11.695 0.869581 11.202 1.05308L0.556967 5.12858C-0.169533 5.41058 -0.158533 5.81558 0.433467 5.99908L3.15497 6.84558L9.47647 2.89008C9.77397 2.69308 10.0445 2.80208 9.82197 2.99908L4.70847 7.59058Z" fill="rgb(93,108,123)" fill-rule="nonzero"></path>
  </symbol>
  <symbol viewBox="0 0 16 16" xmlns="http://www.w3.org/2000/svg" fill="none" id="search">
	<rect id="Icon / Outlined / Search" width="16.000000" height="16.000000" x="0.000000" y="0.000000" fill="rgb(255,255,255)" fill-opacity="0" />
	<path id="Vector" d="M15.9519 14.8499L10.758 9.65596C11.564 8.61396 11.9999 7.33997 11.9999 5.99997C11.9999 4.39598 11.374 2.89199 10.242 1.75799C9.10996 0.623997 7.60197 0 5.99997 0C4.39798 0 2.88999 0.625997 1.75799 1.75799C0.623997 2.88999 0 4.39598 0 5.99997C0 7.60197 0.625997 9.10996 1.75799 10.242C2.88999 11.376 4.39598 11.9999 5.99997 11.9999C7.33997 11.9999 8.61196 11.5639 9.65396 10.76L14.8479 15.9519C14.8632 15.9672 14.8812 15.9793 14.9012 15.9875C14.9211 15.9958 14.9424 16 14.9639 16C14.9855 16 15.0068 15.9958 15.0267 15.9875C15.0466 15.9793 15.0647 15.9672 15.0799 15.9519L15.9519 15.0819C15.9672 15.0667 15.9793 15.0486 15.9875 15.0287C15.9958 15.0088 16 14.9875 16 14.9659C16 14.9444 15.9958 14.9231 15.9875 14.9032C15.9793 14.8832 15.9672 14.8652 15.9519 14.8499ZM9.16796 9.16796C8.31996 10.014 7.19597 10.48 5.99997 10.48C4.80398 10.48 3.67998 10.014 2.83199 9.16796C1.98599 8.31996 1.51999 7.19597 1.51999 5.99997C1.51999 4.80398 1.98599 3.67798 2.83199 2.83199C3.67998 1.98599 4.80398 1.51999 5.99997 1.51999C7.19597 1.51999 8.32197 1.98399 9.16796 2.83199C10.014 3.67998 10.48 4.80398 10.48 5.99997C10.48 7.19597 10.014 8.32197 9.16796 9.16796Z" fill="rgb(255,255,255)" fill-rule="nonzero" />
</symbol>
<symbol viewBox="0 0 20 20" xmlns="http://www.w3.org/2000/svg" fill="none" id="balance">
	<rect id="balance 2" width="20.000000" height="20.000000" x="0.000000" y="0.000000" fill="rgb(255,255,255)" fill-opacity="0" />
	<g id="Group">
		<g id="Group">
			<path id="Vector" d="M19.4141 11.2639L18.7766 11.2639L16.7349 6.32553C17.0208 6.28663 17.2413 6.04217 17.2413 5.74561C17.2413 5.42202 16.979 5.15967 16.6554 5.15967L11.6177 5.15967C11.3769 4.49088 10.7363 4.01135 9.98559 4.01135C9.23488 4.01135 8.59422 4.49092 8.3534 5.15967L3.34465 5.15967C3.02105 5.15967 2.75871 5.42202 2.75871 5.74561C2.75871 6.04217 2.97926 6.28663 3.26512 6.32553L1.22344 11.2639L0.585938 11.2639C0.262344 11.2639 0 11.5263 0 11.8499C0 14.132 1.85668 15.9887 4.13883 15.9887C6.42098 15.9887 8.27766 14.132 8.27766 11.8499C8.27766 11.5263 8.01531 11.2639 7.69172 11.2639L7.05418 11.2639L5.01504 6.33155L8.3534 6.33155C8.59422 7.00034 9.23484 7.47987 9.98559 7.47987C10.7363 7.47987 11.3769 7.00034 11.6177 6.33155L14.985 6.33155L12.9459 11.2639L12.3083 11.2639C11.9847 11.2639 11.7224 11.5263 11.7224 11.8499C11.7224 14.132 13.5791 15.9887 15.8612 15.9887C18.1434 15.9887 20 14.132 20 11.8499C20 11.5263 19.7377 11.2639 19.4141 11.2639ZM4.13883 14.8168C2.70332 14.8168 1.5027 13.7922 1.22996 12.4358L7.0477 12.4358C6.77496 13.7922 5.57434 14.8168 4.13883 14.8168ZM5.78613 11.2639L2.49152 11.2639L4.13883 7.2794L5.78613 11.2639ZM9.98555 6.30799C9.67543 6.30799 9.42316 6.05573 9.42316 5.74561C9.42316 5.43549 9.67543 5.18323 9.98555 5.18323C10.2956 5.18323 10.5479 5.43549 10.5479 5.74561C10.5479 6.05573 10.2957 6.30799 9.98555 6.30799ZM15.8612 7.2794L17.5085 11.2639L14.2139 11.2639L15.8612 7.2794ZM15.8612 14.8168C14.4257 14.8168 13.225 13.7922 12.9523 12.4358L18.77 12.4358C18.4973 13.7922 17.2966 14.8168 15.8612 14.8168Z" fill="rgb(40,39,57)" fill-rule="nonzero" />
			<path id="Vector" d="M18.1985 15.2639C17.533 15.721 16.7278 15.9887 15.8612 15.9887C14.9946 15.9887 14.1894 15.721 13.5239 15.2639C13.4532 15.2154 13.384 15.1647 13.3166 15.1119C13.189 15.0121 13.0673 14.9051 12.9523 14.7913C12.5979 14.4408 12.3063 14.0269 12.0962 13.5683C11.8562 13.0446 11.7224 12.4626 11.7224 11.8499C11.7224 11.5489 11.9493 11.301 12.2413 11.2677C12.2633 11.2652 12.2857 11.2639 12.3083 11.2639L12.9459 11.2639L13.063 10.9806L13.2902 10.4311L13.3313 10.3315L13.697 9.44696L13.8158 9.15967L14.1151 8.43581L14.2139 8.19681L14.2327 8.15115L14.3317 7.91171L14.5487 7.38693L14.5995 7.26393L14.985 6.33155L11.6177 6.33155C11.3987 6.93974 10.8491 7.39142 10.1867 7.46828C10.1207 7.47593 10.0536 7.47987 9.98559 7.47987C9.92792 7.47987 9.87091 7.47704 9.81468 7.47151C9.13879 7.40509 8.57572 6.94897 8.3534 6.33155L5.01504 6.33155L5.4005 7.26393L5.44761 7.37787L5.66832 7.91173L5.7673 8.15115L5.78613 8.19671L5.88498 8.43581L6.18424 9.15967L6.303 9.44694L6.66872 10.3315L6.72163 10.4595L6.93703 10.9806L7.05418 11.2639L7.69172 11.2639C7.71438 11.2639 7.73674 11.2652 7.75874 11.2677C8.05077 11.301 8.27766 11.5489 8.27766 11.8499C8.27766 12.4626 8.14383 13.0446 7.90387 13.5683C7.6937 14.0269 7.4021 14.4408 7.0477 14.7914C6.93269 14.9051 6.81107 15.0122 6.68348 15.1119C6.61601 15.1647 6.54687 15.2154 6.47615 15.2639C5.81063 15.721 5.0054 15.9887 4.13883 15.9887C3.27225 15.9887 2.46702 15.721 1.8015 15.2639C1.73079 15.2154 1.66165 15.1647 1.59418 15.1119C1.46658 15.0122 1.34496 14.9051 1.22996 14.7914C0.470928 14.0407 0 12.9992 0 11.8499C0 11.5263 0.262344 11.2639 0.585938 11.2639L1.22344 11.2639L1.3406 10.9805L1.73025 10.0381L1.97464 9.44692L2.39267 8.43581L2.49152 8.19669L2.60934 7.91173L2.87716 7.26393L3.26512 6.32553C3.163 6.31163 3.06922 6.2715 2.99085 6.21214C2.84983 6.10532 2.75871 5.93623 2.75871 5.74561C2.75871 5.42202 3.02105 5.15967 3.34465 5.15967L8.3534 5.15967C8.38549 5.07055 8.42468 4.98479 8.47029 4.90308C8.76693 4.37162 9.33492 4.01135 9.98559 4.01135C10.6299 4.01135 11.1931 4.36457 11.492 4.8875C11.5414 4.97387 11.5836 5.06487 11.6177 5.15967L16.6554 5.15967C16.979 5.15967 17.2413 5.42202 17.2413 5.74561C17.2413 5.93623 17.1502 6.10531 17.0092 6.21213C16.9309 6.2715 16.8371 6.31163 16.7349 6.32553L17.1229 7.26393L17.3907 7.91174L17.5085 8.19663L17.6074 8.43581L18.0254 9.44695L18.2698 10.0381L18.6594 10.9805L18.7766 11.2639L19.4141 11.2639C19.7377 11.2639 20 11.5263 20 11.8499C20 12.9992 19.5291 14.0407 18.77 14.7914C18.655 14.9051 18.5334 15.0122 18.4058 15.1119C18.3384 15.1647 18.2692 15.2154 18.1985 15.2639ZM17.2355 14.4789C16.8398 14.6866 16.3918 14.8075 15.9168 14.8163C15.8983 14.8166 15.8798 14.8168 15.8612 14.8168C15.8426 14.8168 15.8241 14.8166 15.8056 14.8163C15.3306 14.8075 14.8825 14.6866 14.4868 14.4789C13.7072 14.0698 13.1309 13.3239 12.9523 12.4358L18.77 12.4358C18.5915 13.3239 18.0151 14.0697 17.2355 14.4789ZM16.715 11.2639L17.5085 11.2639L17.3913 10.9806L16.6385 9.15967L16.6385 9.15963L16.3393 8.43581L15.8612 7.2794L15.3831 8.43581L15.2155 8.84111L15.0838 9.15967L14.985 9.3987L14.5993 10.3315L14.331 10.9805L14.2139 11.2639L16.715 11.2639ZM3.66074 8.43581L3.36149 9.15963L3.36148 9.15967L2.60868 10.9806L2.49152 11.2639L5.78613 11.2639L5.66897 10.9805L5.40066 10.3315L5.01504 9.39879L4.91618 9.15967L4.78448 8.84112L4.61692 8.43581L4.13883 7.2794L3.66074 8.43581ZM2.95158 12.4358L1.22996 12.4358C1.40853 13.3239 1.98487 14.0697 2.76448 14.4789C3.16015 14.6866 3.60819 14.8075 4.08315 14.8163C4.10167 14.8166 4.12023 14.8168 4.13883 14.8168C4.15741 14.8168 4.17595 14.8166 4.19445 14.8163C4.66943 14.8075 5.11749 14.6866 5.51318 14.4789C6.29278 14.0697 6.86913 13.3239 7.0477 12.4358L2.95158 12.4358ZM9.42316 5.74561C9.42316 6.05573 9.67543 6.30799 9.98555 6.30799C10.2957 6.30799 10.5479 6.05573 10.5479 5.74561C10.5479 5.43549 10.2956 5.18323 9.98555 5.18323C9.67543 5.18323 9.42316 5.43549 9.42316 5.74561Z" fill="rgb(40,39,57)" fill-rule="evenodd" />
		</g>
	</g>
</symbol>
<symbol viewBox="0 0 20 20" xmlns="http://www.w3.org/2000/svg" fill="none" id="heart">
	<rect id="Icon / Outlined / Heart" width="20.000000" height="20.000000" x="0.000000" y="0.000000" fill="rgb(255,255,255)" fill-opacity="0" />
	<path id="Vector" d="M17.9935 5.51496C17.7329 4.90541 17.357 4.35303 16.887 3.88876C16.4166 3.4231 15.8621 3.05305 15.2535 2.79873C14.6224 2.53397 13.9455 2.39845 13.2621 2.40004C12.3034 2.40004 11.368 2.66518 10.5552 3.166C10.3607 3.28581 10.176 3.4174 10.0009 3.56077C9.82592 3.4174 9.64117 3.28581 9.44671 3.166C8.63384 2.66518 7.69845 2.40004 6.73973 2.40004C6.04937 2.40004 5.38041 2.53359 4.74839 2.79873C4.13777 3.05405 3.58743 3.42132 3.11487 3.88876C2.64426 4.35251 2.26831 4.90501 2.00836 5.51496C1.73805 6.14934 1.59998 6.823 1.59998 7.51629C1.59998 8.17031 1.73221 8.85182 1.99474 9.54512C2.21449 10.1245 2.52953 10.7255 2.93207 11.3324C3.56992 12.2928 4.44697 13.2944 5.53598 14.3098C7.34063 15.993 9.12778 17.1557 9.20362 17.2028L9.66451 17.5013C9.8687 17.6329 10.1312 17.6329 10.3354 17.5013L10.7963 17.2028C10.8721 17.1537 12.6574 15.993 14.4639 14.3098C15.553 13.2944 16.43 12.2928 17.0679 11.3324C17.4704 10.7255 17.7874 10.1245 18.0052 9.54512C18.2677 8.85182 18.4 8.17031 18.4 7.51629C18.4019 6.823 18.2638 6.14934 17.9935 5.51496ZM10.0009 15.9478C10.0009 15.9478 3.07792 11.4679 3.07792 7.51629C3.07792 5.51496 4.71728 3.89269 6.73973 3.89269C8.16128 3.89269 9.3942 4.69401 10.0009 5.86456C10.6077 4.69401 11.8406 3.89269 13.2621 3.89269C15.2846 3.89269 16.924 5.51496 16.924 7.51629C16.924 11.4679 10.0009 15.9478 10.0009 15.9478Z" fill="rgb(40,39,57)" fill-rule="nonzero" />
</symbol>
<symbol viewBox="0 0 20 20" xmlns="http://www.w3.org/2000/svg" fill="none" id="shop">
	<rect id="shopping-cart 2" width="20.000000" height="20.000000" x="0.000000" y="0.000000" fill="rgb(255,255,255)" fill-opacity="0" />
	<path id="Vector" d="M19.1523 7.25427L15.0031 7.25427L12.6756 1.92486C12.5462 1.62833 12.2008 1.49282 11.9042 1.62239C11.6076 1.75189 11.4722 2.09732 11.6017 2.39388L13.7244 7.25431L6.27564 7.25431L8.3983 2.39388C8.52779 2.09732 8.3924 1.75193 8.09584 1.62239C7.79932 1.49282 7.45385 1.62825 7.32439 1.92486L4.99689 7.25427L0.847715 7.25427C0.304942 7.25427 -0.0978707 7.74564 0.0208793 8.26286L2.20584 17.7797C2.2926 18.1576 2.63611 18.4261 3.03268 18.4261L16.9674 18.4261C17.3639 18.4261 17.7074 18.1576 17.7942 17.7797L19.9792 8.26286C20.0979 7.74568 19.6951 7.25427 19.1523 7.25427ZM5.10713 9.0513C5.02885 9.0513 4.94928 9.03552 4.87291 9.00216C4.57635 8.87267 4.44092 8.52728 4.57045 8.23068L5.01061 7.22278L6.28936 7.22278L5.64436 8.69966C5.54822 8.91993 5.33299 9.0513 5.10713 9.0513ZM7.07033 15.3011C7.07033 15.6247 6.80799 15.8871 6.48439 15.8871C6.1608 15.8871 5.89846 15.6247 5.89846 15.3011L5.89846 11.0043C5.89846 10.6807 6.1608 10.4183 6.48439 10.4183C6.80799 10.4183 7.07033 10.6807 7.07033 11.0043L7.07033 15.3011ZM10.586 15.3011C10.586 15.6247 10.3236 15.8871 10 15.8871C9.67643 15.8871 9.41408 15.6247 9.41408 15.3011L9.41408 11.0043C9.41408 10.6807 9.67643 10.4183 10 10.4183C10.3236 10.4183 10.586 10.6807 10.586 11.0043L10.586 15.3011ZM14.1016 15.3011C14.1016 15.6247 13.8392 15.8871 13.5156 15.8871C13.1921 15.8871 12.9297 15.6247 12.9297 15.3011L12.9297 11.0043C12.9297 10.6807 13.1921 10.4183 13.5156 10.4183C13.8392 10.4183 14.1016 10.6807 14.1016 11.0043L14.1016 15.3011ZM15.1271 9.00216C15.0508 9.03552 14.9712 9.0513 14.8929 9.0513C14.6671 9.0513 14.4518 8.91997 14.3556 8.6997L13.7106 7.22282L14.9894 7.22282L15.4296 8.23071C15.5591 8.52728 15.4237 8.87267 15.1271 9.00216Z" fill="rgb(111,115,238)" fill-rule="nonzero" />
</symbol>
<symbol viewBox="0 0 12.5773 15" xmlns="http://www.w3.org/2000/svg" fill="none" customFrame="#000000" id="map">
	<g id="Group">
		<path id="Vector" d="M10.7355 1.84193C9.54771 0.654143 7.96843 0 6.28872 0C4.60897 0 3.02975 0.654114 1.8419 1.84193C0.654143 3.02969 0 4.60886 0 6.2886C0 7.96834 0.654143 9.54757 1.8419 10.7354L5.97799 14.8713C6.0638 14.9571 6.17627 15 6.28872 15C6.40119 15 6.51366 14.9571 6.59944 14.8713L10.7354 10.7354C11.9232 9.5476 12.5773 7.96837 12.5773 6.28863C12.5773 4.60883 11.9232 3.02966 10.7355 1.84193ZM8.26369 8.26351C7.73616 8.79103 7.03479 9.08157 6.28875 9.08157C5.5427 9.08157 4.84133 8.79106 4.31384 8.26354C3.78628 7.73602 3.49578 7.03465 3.49578 6.2886C3.49578 5.54258 3.78628 4.84121 4.31384 4.31366C4.84133 3.78614 5.5427 3.49563 6.28875 3.49563C7.03479 3.49563 7.73616 3.78614 8.26369 4.31366C8.79121 4.84115 9.08175 5.54252 9.08175 6.28857C9.08172 7.03462 8.79118 7.73602 8.26369 8.26351Z" fill="rgb(255,255,255)" fill-rule="nonzero" />
	</g>
</symbol>
<symbol viewBox="0 0 14.6469 15.3171" xmlns="http://www.w3.org/2000/svg" fill="none" customFrame="#000000" id="scooter">
	<g id="Group">
		<path id="Vector" d="M12.2656 10.5047L9.64062 1.5203L11.4062 1.32967C11.7719 1.28905 12.0375 0.96092 11.9969 0.595295C11.9563 0.22967 11.6312 -0.0390795 11.2625 0.00467053L6.16562 0.554671C5.8 0.595295 5.53437 0.923421 5.575 1.28905C5.6125 1.62967 5.9 1.8828 6.2375 1.8828C6.2625 1.8828 6.28437 1.8828 6.30937 1.87967L8.29688 1.66717L10.9719 10.8422C10.4438 11.1515 10.0469 11.6515 9.87187 12.2453L4.77812 12.2453C4.48438 11.2422 3.55 10.5047 2.4375 10.5047C1.09063 10.5047 0 11.5828 0 12.9109C0 14.239 1.09063 15.3172 2.4375 15.3172C3.55 15.3172 4.48438 14.5828 4.77812 13.5765L9.86875 13.5765C10.1625 14.5797 11.0969 15.3172 12.2094 15.3172C13.5562 15.3172 14.6469 14.239 14.6469 12.9109C14.6469 11.5984 13.5875 10.5328 12.2656 10.5047Z" fill="rgb(255,255,255)" fill-rule="nonzero" />
	</g>
</symbol>
<symbol viewBox="0 0 8.39941 16" xmlns="http://www.w3.org/2000/svg" fill="none" customFrame="#000000" id="zero">
	<g id="Group">
		<path id="Vector" d="M8.39942 0L2.39924 0L0 8.63849L2.40413 8.63849L0.359967 16L1.08008 16L8.03891 7.36114L4.51362 7.36114L8.39942 0Z" fill="rgb(255,255,255)" fill-rule="nonzero" />
	</g>
</symbol>

</svg>