<svg viewBox="0 0 123 45" xmlns="http://www.w3.org/2000/svg" xmlns:xlink="http://www.w3.org/1999/xlink" width="123.000000" height="45.000000" fill="none" customFrame="#000000">
	<defs>
		<clipPath id="clipPath_6">
			<rect width="20.000000" height="20.000000" x="12.000000" y="13.000000" fill="rgb(255,255,255)" />
		</clipPath>
	</defs>
	<g id="Group 1705">
		<rect id="Rectangle 183" width="123.000000" height="45.000000" x="0.000000" y="0.000000" rx="5.000000" fill="rgb(255,255,255)" />
		<g id="003-telegram 2" clip-path="url(#clipPath_6)" customFrame="url(#clipPath_6)">
			<rect id="003-telegram 2" width="20.000000" height="20.000000" x="12.000000" y="13.000000" fill="rgb(255,255,255)" fill-opacity="0" />
			<path id="Vector" d="M19.8474 25.6508L19.5166 30.3041C19.9899 30.3041 20.1949 30.1008 20.4407 29.8566L22.6599 27.7358L27.2582 31.1033C28.1016 31.5733 28.6957 31.3258 28.9232 30.3274L31.9416 16.1841L31.9424 16.1833C32.2099 14.9366 31.4916 14.4491 30.6699 14.7549L12.9282 21.5474C11.7174 22.0174 11.7357 22.6924 12.7224 22.9983L17.2582 24.4091L27.7941 17.8166C28.2899 17.4883 28.7407 17.6699 28.3699 17.9983L19.8474 25.6508Z" fill="rgb(3,155,229)" fill-rule="nonzero" />
		</g>
		<path id="Telegram" d="M45.112 11.591L47.702 11.591L47.702 19.865L49.354 19.865L49.354 11.591L51.944 11.591L51.944 10.065L45.112 10.065L45.112 11.591ZM54.4262 20.005C55.1728 20.005 55.8122 19.8603 56.3442 19.571C56.8762 19.2723 57.3148 18.8337 57.6602 18.255L56.3442 17.737C56.1482 18.0823 55.8962 18.339 55.5882 18.507C55.2802 18.675 54.9162 18.759 54.4962 18.759C54.1042 18.759 53.7728 18.675 53.5022 18.507C53.2315 18.339 53.0215 18.0917 52.8722 17.765C52.7322 17.4383 52.6668 17.0463 52.6762 16.589C52.6762 16.1223 52.7462 15.7303 52.8862 15.413C53.0355 15.0957 53.2408 14.853 53.5022 14.685C53.7728 14.517 54.0995 14.433 54.4822 14.433C54.7995 14.433 55.0748 14.503 55.3082 14.643C55.5508 14.783 55.7375 14.979 55.8682 15.231C56.0082 15.483 56.0782 15.7817 56.0782 16.127C56.0782 16.1923 56.0595 16.2717 56.0222 16.365C55.9942 16.4583 55.9662 16.533 55.9382 16.589L56.4002 15.945L52.0462 15.945L52.0462 16.995L57.7022 16.995C57.7022 16.9577 57.7022 16.897 57.7022 16.813C57.7115 16.729 57.7162 16.6497 57.7162 16.575C57.7162 15.8843 57.5902 15.2963 57.3382 14.811C57.0862 14.3163 56.7175 13.9383 56.2322 13.677C55.7562 13.4157 55.1775 13.285 54.4962 13.285C53.8148 13.285 53.2222 13.425 52.7182 13.705C52.2142 13.9757 51.8222 14.363 51.5422 14.867C51.2715 15.371 51.1362 15.9637 51.1362 16.645C51.1362 17.317 51.2715 17.905 51.5422 18.409C51.8128 18.913 52.1955 19.305 52.6902 19.585C53.1942 19.865 53.7728 20.005 54.4262 20.005ZM59.173 8.945L59.173 19.865L60.699 19.865L60.699 8.945L59.173 8.945ZM65.4183 20.005C66.165 20.005 66.8043 19.8603 67.3363 19.571C67.8683 19.2723 68.307 18.8337 68.6523 18.255L67.3363 17.737C67.1403 18.0823 66.8883 18.339 66.5803 18.507C66.2723 18.675 65.9083 18.759 65.4883 18.759C65.0963 18.759 64.765 18.675 64.4943 18.507C64.2237 18.339 64.0137 18.0917 63.8643 17.765C63.7243 17.4383 63.659 17.0463 63.6683 16.589C63.6683 16.1223 63.7383 15.7303 63.8783 15.413C64.0277 15.0957 64.233 14.853 64.4943 14.685C64.765 14.517 65.0917 14.433 65.4743 14.433C65.7917 14.433 66.067 14.503 66.3003 14.643C66.543 14.783 66.7297 14.979 66.8603 15.231C67.0003 15.483 67.0703 15.7817 67.0703 16.127C67.0703 16.1923 67.0517 16.2717 67.0143 16.365C66.9863 16.4583 66.9583 16.533 66.9303 16.589L67.3923 15.945L63.0383 15.945L63.0383 16.995L68.6943 16.995C68.6943 16.9577 68.6943 16.897 68.6943 16.813C68.7037 16.729 68.7083 16.6497 68.7083 16.575C68.7083 15.8843 68.5823 15.2963 68.3303 14.811C68.0783 14.3163 67.7097 13.9383 67.2243 13.677C66.7483 13.4157 66.1697 13.285 65.4883 13.285C64.807 13.285 64.2143 13.425 63.7103 13.705C63.2063 13.9757 62.8143 14.363 62.5343 14.867C62.2637 15.371 62.1283 15.9637 62.1283 16.645C62.1283 17.317 62.2637 17.905 62.5343 18.409C62.805 18.913 63.1877 19.305 63.6823 19.585C64.1863 19.865 64.765 20.005 65.4183 20.005ZM69.8012 20.299C69.8199 20.859 69.9646 21.3537 70.2352 21.783C70.5059 22.2123 70.8885 22.5437 71.3832 22.777C71.8779 23.0197 72.4706 23.141 73.1612 23.141C73.7492 23.141 74.2952 23.015 74.7992 22.763C75.3032 22.5203 75.7092 22.147 76.0172 21.643C76.3345 21.139 76.4932 20.4997 76.4932 19.725L76.4932 13.425L75.0092 13.425L75.0092 19.725C75.0092 20.2103 74.9159 20.607 74.7292 20.915C74.5519 21.223 74.3186 21.4517 74.0292 21.601C73.7399 21.7503 73.4412 21.825 73.1332 21.825C72.7692 21.825 72.4519 21.755 72.1812 21.615C71.9106 21.4843 71.7006 21.3023 71.5512 21.069C71.4019 20.845 71.3226 20.5883 71.3132 20.299L69.8012 20.299ZM69.6752 16.603C69.6752 17.3123 69.8199 17.9143 70.1092 18.409C70.3986 18.9037 70.7812 19.2817 71.2572 19.543C71.7426 19.8043 72.2606 19.935 72.8112 19.935C73.3526 19.935 73.8239 19.8043 74.2252 19.543C74.6359 19.2723 74.9579 18.8897 75.1912 18.395C75.4339 17.891 75.5552 17.2937 75.5552 16.603C75.5552 15.903 75.4339 15.3103 75.1912 14.825C74.9579 14.3303 74.6359 13.9523 74.2252 13.691C73.8239 13.4203 73.3526 13.285 72.8112 13.285C72.2606 13.285 71.7426 13.4157 71.2572 13.677C70.7812 13.9383 70.3986 14.3163 70.1092 14.811C69.8199 15.2963 69.6752 15.8937 69.6752 16.603ZM71.2432 16.603C71.2432 16.1737 71.3319 15.8097 71.5092 15.511C71.6866 15.2123 71.9199 14.9883 72.2092 14.839C72.5079 14.6803 72.8299 14.601 73.1752 14.601C73.3992 14.601 73.6186 14.643 73.8332 14.727C74.0479 14.811 74.2439 14.9417 74.4212 15.119C74.5986 15.287 74.7386 15.497 74.8412 15.749C74.9532 15.9917 75.0092 16.2763 75.0092 16.603C75.0092 17.0417 74.9159 17.4103 74.7292 17.709C74.5519 18.0077 74.3232 18.2363 74.0432 18.395C73.7632 18.5443 73.4739 18.619 73.1752 18.619C72.8299 18.619 72.5079 18.5443 72.2092 18.395C71.9199 18.2363 71.6866 18.0077 71.5092 17.709C71.3319 17.401 71.2432 17.0323 71.2432 16.603ZM79.8663 13.425L78.3683 13.425L78.3683 19.865L79.8663 19.865L79.8663 13.425ZM81.7843 15.035L82.5263 13.761C82.377 13.5837 82.1997 13.4577 81.9943 13.383C81.789 13.3083 81.5697 13.271 81.3363 13.271C81.0097 13.271 80.6923 13.3923 80.3843 13.635C80.0857 13.8683 79.8383 14.1857 79.6423 14.587C79.4557 14.979 79.3623 15.4317 79.3623 15.945L79.8663 16.239C79.8663 15.931 79.899 15.665 79.9643 15.441C80.039 15.2077 80.1557 15.0257 80.3143 14.895C80.473 14.7643 80.6783 14.699 80.9303 14.699C81.117 14.699 81.271 14.727 81.3923 14.783C81.523 14.839 81.6537 14.923 81.7843 15.035ZM84.5157 17.863C84.5157 17.6577 84.5623 17.485 84.6557 17.345C84.7583 17.205 84.9077 17.0977 85.1037 17.023C85.2997 16.939 85.5563 16.897 85.8737 16.897C86.2377 16.897 86.583 16.9437 86.9097 17.037C87.2363 17.1303 87.5443 17.2797 87.8337 17.485L87.8337 16.715C87.7497 16.6123 87.605 16.5003 87.3997 16.379C87.1943 16.2483 86.933 16.1363 86.6157 16.043C86.3077 15.9497 85.939 15.903 85.5097 15.903C84.707 15.903 84.0863 16.0897 83.6477 16.463C83.209 16.827 82.9897 17.3217 82.9897 17.947C82.9897 18.3857 83.0923 18.759 83.2977 19.067C83.503 19.375 83.7783 19.6083 84.1237 19.767C84.469 19.9257 84.8423 20.005 85.2437 20.005C85.617 20.005 85.981 19.9397 86.3357 19.809C86.6997 19.669 86.9983 19.459 87.2317 19.179C87.4743 18.899 87.5957 18.5537 87.5957 18.143L87.3717 17.303C87.3717 17.6297 87.297 17.9097 87.1477 18.143C86.9983 18.3763 86.7977 18.5583 86.5457 18.689C86.303 18.8103 86.0277 18.871 85.7197 18.871C85.4863 18.871 85.2763 18.8337 85.0897 18.759C84.9123 18.6843 84.7723 18.5723 84.6697 18.423C84.567 18.2643 84.5157 18.0777 84.5157 17.863ZM84.0397 15.105C84.1423 15.0397 84.287 14.9603 84.4737 14.867C84.6603 14.7643 84.8843 14.6803 85.1457 14.615C85.4163 14.5403 85.701 14.503 85.9997 14.503C86.1957 14.503 86.3777 14.5217 86.5457 14.559C86.7137 14.5963 86.8583 14.657 86.9797 14.741C87.1103 14.825 87.2083 14.9323 87.2737 15.063C87.339 15.1937 87.3717 15.3617 87.3717 15.567L87.3717 19.865L88.8557 19.865L88.8557 15.273C88.8557 14.8437 88.739 14.4797 88.5057 14.181C88.2817 13.8823 87.9643 13.6583 87.5537 13.509C87.143 13.3503 86.6763 13.271 86.1537 13.271C85.547 13.271 85.015 13.355 84.5577 13.523C84.1003 13.691 83.7223 13.8637 83.4237 14.041L84.0397 15.105ZM99.8443 15.763C99.8443 15.2403 99.765 14.7923 99.6063 14.419C99.457 14.0457 99.233 13.7657 98.9343 13.579C98.6357 13.383 98.253 13.285 97.7863 13.285C97.357 13.285 96.9697 13.383 96.6243 13.579C96.2883 13.7657 96.0037 14.0503 95.7703 14.433C95.6303 14.0597 95.4017 13.775 95.0843 13.579C94.7763 13.383 94.389 13.285 93.9223 13.285C93.5023 13.285 93.143 13.3783 92.8443 13.565C92.5457 13.7423 92.2983 14.0083 92.1023 14.363L92.1023 13.425L90.6183 13.425L90.6183 19.865L92.1023 19.865L92.1023 15.945C92.1023 15.637 92.1537 15.3757 92.2563 15.161C92.3683 14.9463 92.5177 14.783 92.7043 14.671C92.9003 14.559 93.1243 14.503 93.3763 14.503C93.7497 14.503 94.0203 14.6243 94.1883 14.867C94.3657 15.1003 94.4543 15.4597 94.4543 15.945L94.4543 19.865L95.9663 19.865L95.9663 15.945C95.9663 15.637 96.0177 15.3757 96.1203 15.161C96.2323 14.9463 96.3817 14.783 96.5683 14.671C96.7643 14.559 96.993 14.503 97.2543 14.503C97.6183 14.503 97.8843 14.6243 98.0523 14.867C98.2297 15.1003 98.3183 15.4597 98.3183 15.945L98.3183 19.865L99.8443 19.865L99.8443 15.763Z" fill="rgb(40,39,57)" fill-rule="nonzero" />
		<path id="432" d="M45.2 33.075L50.53 33.075L50.53 32.325L49.1 32.325L48.93 32.325L46.6 32.325L48.58 29.365L48.58 32.605L48.58 32.715L48.58 34.475L49.43 34.475L49.43 27.475L49.08 27.475L45.2 33.075ZM53.3601 31.025C53.8134 31.025 54.2101 30.945 54.5501 30.785C54.8901 30.625 55.1567 30.4083 55.3501 30.135C55.5434 29.8617 55.6401 29.5617 55.6401 29.235C55.6401 28.9017 55.5601 28.595 55.4001 28.315C55.2467 28.035 55.0234 27.8083 54.7301 27.635C54.4434 27.4617 54.1001 27.375 53.7001 27.375C53.3201 27.375 52.9801 27.455 52.6801 27.615C52.3867 27.7683 52.1534 27.9817 51.9801 28.255C51.8134 28.5283 51.7301 28.8483 51.7301 29.215L52.5401 29.215C52.5401 28.9083 52.6534 28.655 52.8801 28.455C53.1067 28.2483 53.3834 28.145 53.7101 28.145C53.9434 28.145 54.1367 28.1917 54.2901 28.285C54.4501 28.3783 54.5701 28.5117 54.6501 28.685C54.7301 28.8517 54.7701 29.045 54.7701 29.265C54.7701 29.4317 54.7367 29.5883 54.6701 29.735C54.6101 29.8817 54.5201 30.0117 54.4001 30.125C54.2801 30.2317 54.1334 30.3183 53.9601 30.385C53.7867 30.445 53.5867 30.475 53.3601 30.475L53.3601 31.025ZM53.6601 34.575C54.0801 34.575 54.4534 34.495 54.7801 34.335C55.1067 34.175 55.3634 33.9483 55.5501 33.655C55.7434 33.3617 55.8401 33.0183 55.8401 32.625C55.8401 32.2783 55.7734 31.9817 55.6401 31.735C55.5134 31.4883 55.3334 31.2883 55.1001 31.135C54.8734 30.975 54.6101 30.8583 54.3101 30.785C54.0167 30.7117 53.7001 30.675 53.3601 30.675L53.3601 31.225C53.5867 31.225 53.7967 31.2517 53.9901 31.305C54.1834 31.3583 54.3534 31.4417 54.5001 31.555C54.6467 31.6617 54.7601 31.7983 54.8401 31.965C54.9267 32.125 54.9701 32.3117 54.9701 32.525C54.9701 32.7783 54.9167 32.9983 54.8101 33.185C54.7034 33.3717 54.5501 33.5183 54.3501 33.625C54.1567 33.725 53.9267 33.775 53.6601 33.775C53.3934 33.775 53.1567 33.725 52.9501 33.625C52.7434 33.525 52.5801 33.3883 52.4601 33.215C52.3467 33.0417 52.2901 32.845 52.2901 32.625L51.4301 32.625C51.4301 32.8983 51.4834 33.155 51.5901 33.395C51.6967 33.6283 51.8467 33.835 52.0401 34.015C52.2334 34.1883 52.4667 34.325 52.7401 34.425C53.0134 34.525 53.3201 34.575 53.6601 34.575ZM56.4891 34.475L61.4291 34.475L61.4291 33.675L58.2391 33.675L60.4691 31.405C60.7424 31.125 60.9657 30.8083 61.1391 30.455C61.3124 30.1017 61.3991 29.745 61.3991 29.385C61.3991 29.1717 61.3557 28.9483 61.2691 28.715C61.1824 28.4817 61.0491 28.265 60.8691 28.065C60.6891 27.8583 60.4591 27.6917 60.1791 27.565C59.8991 27.4317 59.5657 27.365 59.1791 27.365C58.6991 27.365 58.2857 27.4717 57.9391 27.685C57.5991 27.8917 57.3391 28.185 57.1591 28.565C56.9791 28.9383 56.8891 29.375 56.8891 29.875L57.7391 29.875C57.7391 29.5217 57.7957 29.2183 57.9091 28.965C58.0224 28.705 58.1857 28.5083 58.3991 28.375C58.6191 28.235 58.8791 28.165 59.1791 28.165C59.3924 28.165 59.5824 28.2017 59.7491 28.275C59.9157 28.3483 60.0557 28.445 60.1691 28.565C60.2891 28.685 60.3791 28.8183 60.4391 28.965C60.4991 29.1117 60.5291 29.2617 60.5291 29.415C60.5291 29.6017 60.4991 29.7817 60.4391 29.955C60.3857 30.1217 60.3024 30.2883 60.1891 30.455C60.0824 30.615 59.9524 30.7783 59.7991 30.945L56.4891 34.475Z" fill="rgb(93,108,123)" fill-rule="nonzero" />
	</g>
</svg>
